{"title":"Redline 2013 WEBRip 480p x264 AAC - VYTO [P2PDL]","uid":8746549,"size":306521447,"categoryP":"video","categoryS":"movies","magnet":"?xt=urn:btih:a2ce998148d99bcae1973bc1c61de8ce1edfcfcb&amp;dn=Redline+2013+WEBRip+480p+x264+AAC+-+VYTO+%5BP2PDL%5D&amp;tr=udp%3A%2F%2Ftracker.openbittorrent.com%3A80&amp;tr=udp%3A%2F%2Fopen.demonii.com%3A1337&amp;tr=udp%3A%2F%2Ftracker.coppersurfer.tk%3A6969&amp;tr=udp%3A%2F%2Fexodus.desync.com%3A6969","seeders":1,"leechers":0,"uploader":"Vitamin_X","files":-1,"time":1374933745,"description":"_______ Visit us at our Semi Public Bittorrent Community ________\n  &lt;a href=&quot;\nhttp://p2pdl.com&quot; rel=&quot;nofollow&quot; target=&quot;_NEW&quot;&gt;\nhttp://p2pdl.com&lt;/a&gt;  _____________________________ &lt;a href=&quot; http://p2pdl.com&quot; rel=&quot;nofollow&quot; target=&quot;_NEW&quot;&gt; http://p2pdl.com&lt;/a&gt;\n\nRedline 2013 WEBRip 480p x264 AAC - VYTO\n\nGenre: Thriller\nPlot: A Los Angeles subway train is brought to a slamming stop, \nthe tunnel partially collapsed, and several people injured. \nThe survivors must figure out what caused it, and must \ndeal with the greater danger that soon faces them.  \nDirector: Robert Kirbyson\nStars: Sain, Richard N. Gladstein\nStars: Nicole Gale Anderson, John Billingsley, Kunal Sharma.\nRated: Rated R for some violence.\n\nIMDb: &lt;a href=&quot;\nhttp://www.imdb.com/title/tt1930458/&quot; rel=&quot;nofollow&quot; target=&quot;_NEW&quot;&gt;\nhttp://www.imdb.com/title/tt1930458/&lt;/a&gt;\n\n\nGeneral\nFormat                         : MPEG-4\nFile size                      : 287 MiB\nDuration                       : 1h 26mn\nOverall bit rate mode          : Variable\nOverall bit rate               : 462 Kbps\n\nVideo\nFormat                         : AVC\nBit rate                       : 419 Kbps\nMaximum bit rate               : 1 780 Kbps\nWidth                          : 720 pixels\nHeight                         : 400 pixels\nDisplay aspect ratio           : 16:9\nFrame rate mode                : Constant\nFrame rate                     : 23.976 fps\nBit depth                      : 10 bits\nStream size                    : 260 MiB (91%)\nWriting library                : x264 core 130 r2273 b3065e6\n\nAudio\nFormat                         : AAC\nBit rate                       : 39.9 Kbps\nChannel(s)                     : 2 channels\nChannel positions              : Front: L R\nSampling rate                  : 48.0 KHz / 24.0 KHz\nStream size                    : 24.8 MiB (9%)\nLanguage                       : English\n\nSubtitle                       : Yes(English)\nSource                         : WEB-DL-HKD\n &lt;a href=&quot;\nhttp://ultraimg.com/images/BX1N7.png&quot; rel=&quot;nofollow&quot; target=&quot;_NEW&quot;&gt;\nhttp://ultraimg.com/images/BX1N7.png&lt;/a&gt; &lt;a href=&quot;\nhttp://ultraimg.com/images/cBWTo.png&quot; rel=&quot;nofollow&quot; target=&quot;_NEW&quot;&gt;\nhttp://ultraimg.com/images/cBWTo.png&lt;/a&gt; &lt;a href=&quot;\nhttp://ultraimg.com/images/YuFs3.png&quot; rel=&quot;nofollow&quot; target=&quot;_NEW&quot;&gt;\nhttp://ultraimg.com/images/YuFs3.png&lt;/a&gt; &lt;a href=&quot;\nhttp://ultraimg.com/images/mrb2Q.png&quot; rel=&quot;nofollow&quot; target=&quot;_NEW&quot;&gt;\nhttp://ultraimg.com/images/mrb2Q.png&lt;/a&gt; &lt;a href=&quot;\nhttp://ultraimg.com/images/gGwZ7.png&quot; rel=&quot;nofollow&quot; target=&quot;_NEW&quot;&gt;\nhttp://ultraimg.com/images/gGwZ7.png&lt;/a&gt;\n\n----------------------------------------------------------------------------------------------------\n\n\nEncoded using revolutionary 10bit encoding, which enables us to provide you more crispier \nand sharper images at small sizes, just make sure you follow our instructions without a fault.\nRecommend to you to use latest version of VLC player. Install K-Lite Codec Pack or shark007 codecs\nin case of any kind of problem in playback (For non-VLC Media Player users). Alternatively, install\nCore AVC codecs, the fastest decoder that there is coupled with Community Center Codec Pack and play\non Windows Media Player Classic. Check sample to be sure.\nEnjoy!\n\nEncoder Notes:Looking For Early Access To Anything You Can Provide DVDScr, R5, DVDR, BluRay, Direct\nAudio, Music Releases and Seedboxes. We require dedicated servers, so as to do more \nand fast releases of movies.\nIf You Got anything to offer please contact us at &quot;&lt;a class=&quot;__cf_email__&quot; href=&quot;/cdn-cgi/l/email-protection&quot; data-cfemail=&quot;a3d3d1c4e3cbd6d0cb8dc0ccce&quot;&gt;[email&amp;#160;protected]&lt;/a&gt;&lt;script cf-hash='f9e31' type=&quot;text/javascript&quot;&gt;\n/* &lt;![CDATA[ */!function(){try{var t=&quot;currentScript&quot;in document?document.currentScript:function(){for(var t=document.getElementsByTagName(&quot;script&quot;),e=t.length;e--;)if(t[e].getAttribute(&quot;cf-hash&quot;))return t[e]}();if(t&amp;&amp;t.previousSibling){var e,r,n,i,c=t.previousSibling,a=c.getAttribute(&quot;data-cfemail&quot;);if(a){for(e=&quot;&quot;,r=parseInt(a.substr(0,2),16),n=2;a.length-n;n+=2)i=parseInt(a.substr(n,2),16)^r,e+=String.fromCharCode(i);e=document.createTextNode(e),c.parentNode.replaceChild(e,c)}}}catch(u){}}();/* ]]&gt; */&lt;/script&gt;&quot;.\n\nFace book Fan Page:  \nSearch P2PDL on FB.","torrent":{"xt":"urn:btih:a2ce998148d99bcae1973bc1c61de8ce1edfcfcb","amp;dn":"Redline+2013+WEBRip+480p+x264+AAC+-+VYTO+%5BP2PDL%5D","amp;tr":["udp%3A%2F%2Ftracker.openbittorrent.com%3A80","udp%3A%2F%2Fopen.demonii.com%3A1337","udp%3A%2F%2Ftracker.coppersurfer.tk%3A6969","udp%3A%2F%2Fexodus.desync.com%3A6969"],"infoHash":"a2ce998148d99bcae1973bc1c61de8ce1edfcfcb","infoHashBuffer":{"type":"Buffer","data":[162,206,153,129,72,217,155,202,225,151,59,193,198,29,232,206,30,223,207,203]},"announce":[],"urlList":[]}}